<mxfile host="app.diagrams.net" modified="2022-06-06T12:36:00.510Z" agent="5.0 (X11)" version="19.0.0" etag="Uc_J-D552RuFthZAuymE" type="github">
  <diagram id="-qRK9zbMe1_bCioNVyJd" name="Page-1">
    <mxGraphModel dx="1327" dy="802" grid="1" gridSize="10" guides="1" tooltips="1" connect="1" arrows="1" fold="1" page="1" pageScale="1" pageWidth="827" pageHeight="1169" math="0" shadow="0">
      <root>
        <mxCell id="0" />
        <mxCell id="1" parent="0" />
        <mxCell id="2" value="Users" style="swimlane;fontStyle=0;align=center;verticalAlign=top;childLayout=stackLayout;horizontal=1;startSize=26;horizontalStack=0;resizeParent=1;resizeLast=0;collapsible=1;marginBottom=0;rounded=0;shadow=0;strokeWidth=1;" parent="1" vertex="1">
          <mxGeometry x="50" y="520" width="260" height="430" as="geometry">
            <mxRectangle x="340" y="380" width="170" height="26" as="alternateBounds" />
          </mxGeometry>
        </mxCell>
        <mxCell id="3" value="id                               int  [increment]" style="text;align=left;verticalAlign=top;spacingLeft=4;spacingRight=4;overflow=hidden;rotatable=0;points=[[0,0.5],[1,0.5]];portConstraint=eastwest;" parent="2" vertex="1">
          <mxGeometry y="26" width="260" height="26" as="geometry" />
        </mxCell>
        <mxCell id="4" value="email                         varchar  [unique]" style="text;align=left;verticalAlign=top;spacingLeft=4;spacingRight=4;overflow=hidden;rotatable=0;points=[[0,0.5],[1,0.5]];portConstraint=eastwest;" parent="2" vertex="1">
          <mxGeometry y="52" width="260" height="26" as="geometry" />
        </mxCell>
        <mxCell id="5" value="is_verified                 boolean" style="text;align=left;verticalAlign=top;spacingLeft=4;spacingRight=4;overflow=hidden;rotatable=0;points=[[0,0.5],[1,0.5]];portConstraint=eastwest;" parent="2" vertex="1">
          <mxGeometry y="78" width="260" height="26" as="geometry" />
        </mxCell>
        <mxCell id="6" value="password                  varchar" style="text;align=left;verticalAlign=top;spacingLeft=4;spacingRight=4;overflow=hidden;rotatable=0;points=[[0,0.5],[1,0.5]];portConstraint=eastwest;" parent="2" vertex="1">
          <mxGeometry y="104" width="260" height="26" as="geometry" />
        </mxCell>
        <mxCell id="15" value="plainPassword         varchar" style="text;align=left;verticalAlign=top;spacingLeft=4;spacingRight=4;overflow=hidden;rotatable=0;points=[[0,0.5],[1,0.5]];portConstraint=eastwest;" parent="2" vertex="1">
          <mxGeometry y="130" width="260" height="26" as="geometry" />
        </mxCell>
        <mxCell id="7" value="lastname                  varchar" style="text;align=left;verticalAlign=top;spacingLeft=4;spacingRight=4;overflow=hidden;rotatable=0;points=[[0,0.5],[1,0.5]];portConstraint=eastwest;" parent="2" vertex="1">
          <mxGeometry y="156" width="260" height="26" as="geometry" />
        </mxCell>
        <mxCell id="8" value="firstname                  varchar" style="text;align=left;verticalAlign=top;spacingLeft=4;spacingRight=4;overflow=hidden;rotatable=0;points=[[0,0.5],[1,0.5]];portConstraint=eastwest;" parent="2" vertex="1">
          <mxGeometry y="182" width="260" height="26" as="geometry" />
        </mxCell>
        <mxCell id="9" value="reset_token              varchar" style="text;align=left;verticalAlign=top;spacingLeft=4;spacingRight=4;overflow=hidden;rotatable=0;points=[[0,0.5],[1,0.5]];portConstraint=eastwest;" parent="2" vertex="1">
          <mxGeometry y="208" width="260" height="26" as="geometry" />
        </mxCell>
        <mxCell id="10" value="address                    varchar" style="text;align=left;verticalAlign=top;spacingLeft=4;spacingRight=4;overflow=hidden;rotatable=0;points=[[0,0.5],[1,0.5]];portConstraint=eastwest;" parent="2" vertex="1">
          <mxGeometry y="234" width="260" height="26" as="geometry" />
        </mxCell>
        <mxCell id="11" value="zipcode                    varchar" style="text;align=left;verticalAlign=top;spacingLeft=4;spacingRight=4;overflow=hidden;rotatable=0;points=[[0,0.5],[1,0.5]];portConstraint=eastwest;" parent="2" vertex="1">
          <mxGeometry y="260" width="260" height="26" as="geometry" />
        </mxCell>
        <mxCell id="12" value="city                           varchar" style="text;align=left;verticalAlign=top;spacingLeft=4;spacingRight=4;overflow=hidden;rotatable=0;points=[[0,0.5],[1,0.5]];portConstraint=eastwest;" parent="2" vertex="1">
          <mxGeometry y="286" width="260" height="26" as="geometry" />
        </mxCell>
        <mxCell id="13" value="roles                        json" style="text;align=left;verticalAlign=top;spacingLeft=4;spacingRight=4;overflow=hidden;rotatable=0;points=[[0,0.5],[1,0.5]];portConstraint=eastwest;" parent="2" vertex="1">
          <mxGeometry y="312" width="260" height="26" as="geometry" />
        </mxCell>
        <mxCell id="14" value="created_at               datetime" style="text;align=left;verticalAlign=top;spacingLeft=4;spacingRight=4;overflow=hidden;rotatable=0;points=[[0,0.5],[1,0.5]];portConstraint=eastwest;" parent="2" vertex="1">
          <mxGeometry y="338" width="260" height="26" as="geometry" />
        </mxCell>
        <mxCell id="16" value="updated_at             datetime" style="text;align=left;verticalAlign=top;spacingLeft=4;spacingRight=4;overflow=hidden;rotatable=0;points=[[0,0.5],[1,0.5]];portConstraint=eastwest;" parent="2" vertex="1">
          <mxGeometry y="364" width="260" height="26" as="geometry" />
        </mxCell>
        <mxCell id="BxFpbg7xEbmgNqYVwfvg-16" value="&lt;div&gt;&lt;font style=&quot;font-size: 18px;&quot;&gt;ASSERT&lt;/font&gt;&lt;/div&gt;&lt;div&gt;&lt;font style=&quot;font-size: 18px;&quot;&gt;String-&amp;gt; &lt;/font&gt;&lt;span id=&quot;LC25&quot; class=&quot;line&quot; lang=&quot;php&quot;&gt;&lt;span class=&quot;c1&quot;&gt;#[Assert\NotBlank()]&lt;/span&gt;&lt;/span&gt;&lt;br&gt;&lt;/div&gt;&lt;pre class=&quot;code highlight&quot; lang=&quot;php&quot;&gt;&lt;span id=&quot;LC26&quot; class=&quot;line&quot; lang=&quot;php&quot;&gt;    &lt;span class=&quot;c1&quot;&gt;#[Assert\Length(min: 2, max: 50)]&lt;br&gt;&lt;br&gt;INTEGER&lt;br&gt;&lt;/span&gt;&lt;/span&gt;&lt;span id=&quot;LC42&quot; class=&quot;line&quot; lang=&quot;php&quot;&gt; &lt;span class=&quot;c1&quot;&gt;#[Assert\Positive()]&lt;/span&gt;&lt;/span&gt;&lt;br/&gt;&lt;span id=&quot;LC43&quot; class=&quot;line&quot; lang=&quot;php&quot;&gt;    &lt;span class=&quot;c1&quot;&gt;#[Assert\LessThan(51)]&lt;/span&gt;&lt;/span&gt;&lt;br/&gt;&lt;br&gt;&lt;code&gt;&lt;span class=&quot;c1&quot;&gt;#[Assert\NotBlank()]&lt;/span&gt;&lt;/code&gt;&lt;span id=&quot;LC26&quot; class=&quot;line&quot; lang=&quot;php&quot;&gt;&lt;span class=&quot;c1&quot;&gt;&lt;/span&gt;&lt;/span&gt;&lt;br&gt;&lt;br&gt;&lt;code&gt;&lt;span class=&quot;c1&quot;&gt;#[Assert\NotNull()]&lt;/span&gt;&lt;/code&gt;&lt;/pre&gt;" style="text;html=1;resizable=0;autosize=1;align=center;verticalAlign=middle;points=[];fillColor=none;strokeColor=none;rounded=0;" vertex="1" parent="1">
          <mxGeometry x="90" y="275" width="280" height="190" as="geometry" />
        </mxCell>
      </root>
    </mxGraphModel>
  </diagram>
</mxfile>
